<svg xmlns="http://www.w3.org/2000/svg">
<style type="text/css">
	.st0{fill:none; stroke:#000000; stroke-width:6;}
</style>
<g>
	<path class="st0" d="M147.81,424.44c0,0-4.03,6.73-8.73,6.73s-16.32,0-16.32,0s-1.94,5.78-5.78,5.78s-27.81,0-33.4,0
		s-9.02-9.02-9.02-9.02H62.89c0,0-1.21,4.06-7.3,4.06s-44.76,0-44.76,0v-48.51c0,0-5.83-6.22-5.83-12.11c0-3.59,0-207.4,0-213.97
		s3.05-10.11,3.05-10.11c-3.85-7.37-4.02-15.01,0-22.86c0,0-3.05-5.43-3.05-8.63s0-9.71,0-9.71c0-32.47,63.73-32.47,63.73,0
		c0,0,0,5.83,0,8.71s-2.56,8.37-2.56,8.37c3.89,7.37,3.89,14.73,0,22.1c0,0,4.14,4.67,4.14,9.6c0,10.67,0,220.97,0,222.87
		s6.09-7.84,9.84-7.84s31.94,0,36.44,0s5.71,5.71,5.71,5.71s10.54,0,14.98,0s11.4,5.08,11.4,5.08"/>
	<path class="st0" d="M148.7,647.64c0,0-6.95-5.08-11.4-5.08s-18.98,0-18.98,0s-1.21-5.71-5.71-5.71s-33.69,0-37.44,0
		s-9.84,9.75-9.84,7.84l13.81-108.05c4.06-28.44-50.03-36.57-56.67-5.08L3,646.32c0,5.89,3.83,12.11,3.83,12.11v40.51
		c0,0,42.67,0,48.76,0s7.3-4.06,7.3-4.06h11.68c0,0,3.43,9.02,9.02,9.02s25.56,0,29.4,0s5.78-5.78,5.78-5.78s15.62,0,20.32,0
		s8.73-6.73,8.73-6.73"/>
	<line class="st0" x1="710.67" y1="612.79" x2="710.67" y2="514.36"/>
	<path class="st0" d="M710.67,444.6v-46.71c0,0-8.57-17.44-28.57-17.44s-503.63,0-503.63,0s0-245.33,0-250.67
		c0-10.79-10.6-10.03-10.6-10.03s0-71.37,0-75.56s-7.22-29.08-11.03-35.56s-4.7-5.59-12.32-5.59s-64.51,0-70.86,0
		s-11.54,0.67-9.38,6.51l9.25,15.97h28.57l2.41,4.06H74.92c0,0,3.81,8.25,5.08,10.92c1.27,2.67,3.3,3.81,8.25,3.81
		c4.95,0,18.16,0,21.71,0c3.56,0,3.17-7.87,5.97-7.87c2.79,0,15.24,0,20.06,0s3.52,7.79,7.79,7.79S148,45.3,148,50.44v854.83
		c0,3.17,16.92,3.17,16.92,0V763.3h118.56v-57.78h130.54v59.81h59.3l0-43.54c0-17.95,24-17.95,24,0c0,0,0,68.68,0,72.75
		c0,4.06,2.92,8.32,8.32,8.32s64.32,0,69.52,0s7.52-3.17,7.52-7.52c0-4.35,0-47.11,0-47.11c0-8.97,8.98-8.97,8.98,0
		c0,0,0,44.03,0,47.33c0,3.3,1.65,6.67,6.67,6.67s35.29,0,40.75,0c5.46,0,9.63-3.65,9.63-8.63s0-85.65,0-85.65s30.38,0,40.67,0
		c10.29,0,21.29-6.9,21.29-6.9v-18.33"/>
	<rect x="246.52" y="438.98" class="st0" width="362.67" height="244.57"/>
	<path class="st0" d="M657.05,445.45h-13.33v-13.1h66.43v12.14c0,0,14.52-7,14.52-1.29c0,5.71,0,62.37,0,70.24
		c0,5.09-9.38,2.98-14.71,0.19v13.14h-65.1V514.6h12.81v-6.86h-21.14v-11.86h23.86h-23.86v-14.1h22.76h-22.76V467.6h22.95h-22.95
		v-14.33h20.52V445.45z"/>
	<path class="st0" d="M657.74,613.72H644.4v-13.1h66.43v12.14c0,0,14.52-7,14.52-1.29s0,62.37,0,70.24c0,5.09-9.38,2.98-14.71,0.19
		v13.14h-65.1v-12.19h12.81V676h-21.14v-11.86h23.86h-23.86v-14.1h22.76h-22.76v-14.19h22.95h-22.95v-14.33h20.52V613.72z"/>
	<circle cx="492.46" cy="409.92" r="14.35"/>
	<path d="M509.33,754.9v32.81c0,3.47,4.83,3.47,4.83,0V754.9C514.16,751.51,509.33,751.51,509.33,754.9z"/>
	<path d="M507.1,754.9c0-3.39-4.83-3.39-4.83,0v32.81c0,3.47,4.83,3.47,4.83,0"/>
	<path d="M523.23,754.9v32.81c0,3.47,4.83,3.47,4.83,0V754.9C528.06,751.51,523.23,751.51,523.23,754.9z"/>
	<path d="M521.23,754.9c0-3.39-4.83-3.39-4.83,0v32.81c0,3.47,4.83,3.47,4.83,0"/>
	<path d="M537.36,754.9v32.81c0,3.47,4.83,3.47,4.83,0V754.9C542.19,751.51,537.36,751.51,537.36,754.9z"/>
	<path d="M535.13,754.9c0-3.39-4.83-3.39-4.83,0v32.81c0,3.47,4.83,3.47,4.83,0"/>
	<path d="M551.55,754.9v32.81c0,3.47,4.83,3.47,4.83,0V754.9C556.38,751.51,551.55,751.51,551.55,754.9z"/>
	<path d="M549.26,754.9c0-3.39-4.83-3.39-4.83,0v32.81c0,3.47,4.83,3.47,4.83,0"/>
	<path d="M565.68,754.9v32.81c0,3.47,4.83,3.47,4.83,0V754.9C570.51,751.51,565.68,751.51,565.68,754.9z"/>
	<path d="M563.44,754.9c0-3.39-4.83-3.39-4.83,0v32.81c0,3.47,4.83,3.47,4.83,0"/>
	<path d="M577.57,754.9c0-3.39-4.83-3.39-4.83,0v32.81c0,3.47,4.83,3.47,4.83,0"/>
	<path d="M603.75,755.27v32.81c0,3.47,4.79,3.47,4.79,0v-32.81C608.54,751.88,603.75,751.88,603.75,755.27z"/>
	<path d="M601.53,755.27c0-3.39-4.79-3.39-4.79,0v32.81c0,3.47,4.79,3.47,4.79,0"/>
	<path d="M617.81,755.27v32.81c0,3.47,4.79,3.47,4.79,0v-32.81C622.59,751.88,617.81,751.88,617.81,755.27z"/>
	<path d="M615.54,755.27c0-3.39-4.79-3.39-4.79,0v32.81c0,3.47,4.79,3.47,4.79,0"/>
	<path d="M631.81,755.27v32.81c0,3.47,4.79,3.47,4.79,0v-32.81C636.6,751.88,631.81,751.88,631.81,755.27z"/>
	<path d="M629.6,755.27c0-3.39-4.79-3.39-4.79,0v32.81c0,3.47,4.79,3.47,4.79,0"/>
	<path d="M643.6,755.27c0-3.39-4.79-3.39-4.79,0v32.81c0,3.47,4.79,3.47,4.79,0"/>
</g>
</svg>
